HIERARCHY
ROOT joint_Root
{
	OFFSET 0.0 0.0 0.0
	CHANNELS 6 Xposition Yposition Zposition Zrotation Xrotation Yrotation 
	JOINT Hips
	{
		OFFSET 4.5925 91.4895 -427.239
		CHANNELS 6 Xposition Yposition Zposition Zrotation Xrotation Yrotation 
		JOINT Spine
		{
			OFFSET 15.7357 0.0 0.0
			CHANNELS 6 Xposition Yposition Zposition Zrotation Xrotation Yrotation 
			JOINT Chest
			{
				OFFSET 8.98455 -0.406207 0.0
				CHANNELS 6 Xposition Yposition Zposition Zrotation Xrotation Yrotation 
				JOINT Neck
				{
					OFFSET 16.3773 0.0 0.0
					CHANNELS 6 Xposition Yposition Zposition Zrotation Xrotation Yrotation 
					JOINT Head
					{
						OFFSET 6.45672 0.0 0.0
						CHANNELS 6 Xposition Yposition Zposition Zrotation Xrotation Yrotation 
						End Site
						{
							OFFSET 0.0 0.0 0.0
						}
					}
				}
				JOINT Shoulder_L
				{
					OFFSET 12.9942 -0.242716 4.98039
					CHANNELS 6 Xposition Yposition Zposition Zrotation Xrotation Yrotation 
					JOINT UpperArm_L
					{
						OFFSET 5.34809 0.0 0.0
						CHANNELS 6 Xposition Yposition Zposition Zrotation Xrotation Yrotation 
						JOINT LowerArm_L
						{
							OFFSET 24.3286 1.87007e-05 0.0
							CHANNELS 6 Xposition Yposition Zposition Zrotation Xrotation Yrotation 
							JOINT Hand_L
							{
								OFFSET 22.2916 0.0 0.0
								CHANNELS 6 Xposition Yposition Zposition Zrotation Xrotation Yrotation 
								End Site
								{
									OFFSET 0.0 0.0 0.0
								}
							}
						}
					}
				}
				JOINT Shoulder_R
				{
					OFFSET 12.9945 -0.242716 -4.98039
					CHANNELS 6 Xposition Yposition Zposition Zrotation Xrotation Yrotation 
					JOINT UpperArm_R
					{
						OFFSET -5.34813 0.0 0.0
						CHANNELS 6 Xposition Yposition Zposition Zrotation Xrotation Yrotation 
						JOINT LowerArm_R
						{
							OFFSET -24.3289 0.000322201 0.0
							CHANNELS 6 Xposition Yposition Zposition Zrotation Xrotation Yrotation 
							JOINT Hand_R
							{
								OFFSET -22.2915 -0.000108084 0.0
								CHANNELS 6 Xposition Yposition Zposition Zrotation Xrotation Yrotation 
								End Site
								{
									OFFSET 0.0 0.0 0.0
								}
							}
						}
					}
				}
			}
		}
		JOINT UpperLeg_L
		{
			OFFSET -2.19248 -6.46944 0.0
			CHANNELS 6 Xposition Yposition Zposition Zrotation Xrotation Yrotation 
			JOINT LowerLeg_L
			{
				OFFSET 39.0811 0.0 -1.23785e-05
				CHANNELS 6 Xposition Yposition Zposition Zrotation Xrotation Yrotation 
				JOINT Foot_L
				{
					OFFSET 40.9854 0.0 -1.26872e-05
					CHANNELS 6 Xposition Yposition Zposition Zrotation Xrotation Yrotation 
					JOINT Toes_L
					{
						OFFSET 11.7543 0.0 0.0
						CHANNELS 6 Xposition Yposition Zposition Zrotation Xrotation Yrotation 
						End Site
						{
							OFFSET 0.0 0.0 0.0
						}
					}
				}
			}
		}
		JOINT UpperLeg_R
		{
			OFFSET -2.19251 6.46944 0.0
			CHANNELS 6 Xposition Yposition Zposition Zrotation Xrotation Yrotation 
			JOINT LowerLeg_R
			{
				OFFSET -39.0811 -0.00228153 -0.0401928
				CHANNELS 6 Xposition Yposition Zposition Zrotation Xrotation Yrotation 
				JOINT Foot_R
				{
					OFFSET -40.9854 0.0 0.0
					CHANNELS 6 Xposition Yposition Zposition Zrotation Xrotation Yrotation 
					JOINT Toes_R
					{
						OFFSET -11.7543 0.0 0.0
						CHANNELS 6 Xposition Yposition Zposition Zrotation Xrotation Yrotation 
						End Site
						{
							OFFSET 0.0 0.0 0.0
						}
					}
				}
			}
		}
	}
}
MOTION
Frames:	8
Frame Time:	0.0333333
0.000000 0.000000 0.000000 0.000000 0.000000 -0.000000 -4.342120 90.895300 -0.205107 90.981800 1.731730 5.379990 15.735700 0.000005 -0.000001 92.441600 83.924800 -87.579400 8.984550 -0.406207 -0.000000 4.376160 0.373691 9.699100 16.377300 -0.000001 -0.000001 7.071700 -5.060180 -3.678400 6.456720 -0.000001 -0.000000 -0.625049 -8.929230 2.579810 12.994200 -0.242716 4.980390 -83.620000 -11.641000 -61.007400 5.348090 -0.000007 -0.000001 -56.379200 -71.242000 -100.634000 24.328600 0.000019 0.000005 -2.663790 -1.956660 -53.728300 22.291600 -0.000001 0.000005 23.405300 5.159280 3.721660 12.994500 -0.242716 -4.980390 87.529100 7.759240 -72.274900 -5.348130 -0.000001 -0.000004 -54.126200 -0.080986 4.578420 -24.328900 0.000322 -0.000009 -4.663320 -12.415800 -20.771900 -22.291500 -0.000108 -0.000004 23.916100 5.480230 -5.757230 -2.192480 -6.469440 -0.000000 -172.975000 -13.201400 -3.106190 39.081100 -0.000007 -0.000012 -0.167616 0.321171 27.559800 40.985400 -0.000006 -0.000013 -1.575160 13.393600 -68.356200 11.754300 -0.000000 0.000003 -0.000074 -0.000796 -16.608300 -2.192510 6.469440 -0.000001 176.611000 23.017000 177.421000 -39.081100 -0.002282 -0.040193 -0.083969 0.151241 29.986200 -40.985400 0.000008 0.000006 7.284000 9.356890 -72.870500 -11.754300 -0.000006 -0.000006 -0.919421 -1.158550 -15.854100
0.000000 0.000000 0.000000 0.000000 0.000000 -0.000000 -4.196050 90.955900 -0.380846 90.895500 1.241520 5.083670 15.735700 0.000005 -0.000001 92.230200 83.966100 -87.498800 8.984550 -0.406207 -0.000000 4.296800 0.326323 9.439770 16.377300 -0.000001 -0.000001 6.922190 -4.631070 -4.670810 6.456720 -0.000001 -0.000000 -0.505063 -9.454350 3.428070 12.994200 -0.242716 4.980390 -82.863900 -11.946200 -58.832900 5.348090 -0.000007 -0.000001 -71.697100 -71.389400 -122.166000 24.328600 0.000019 0.000005 0.583600 0.415997 -54.523400 22.291600 -0.000001 0.000005 25.059300 5.227040 2.032760 12.994500 -0.242716 -4.980390 87.668800 7.383280 -72.422100 -5.348130 -0.000001 -0.000004 -54.344000 -0.951868 4.125290 -24.328900 0.000322 -0.000009 -4.977300 -12.275000 -22.271400 -22.291500 -0.000108 -0.000004 24.301500 5.485870 -5.974620 -2.192480 -6.469440 -0.000000 -173.127000 -13.266100 -3.402010 39.081100 -0.000007 -0.000012 -0.162027 0.312331 27.419000 40.985400 -0.000006 -0.000013 -1.592860 12.887100 -68.225100 11.754300 -0.000000 0.000003 -0.000078 -0.000834 -16.609700 -2.192510 6.469440 -0.000001 176.764000 22.911400 177.002000 -39.081100 -0.002282 -0.040193 -0.080846 0.146991 29.790000 -40.985400 0.000008 0.000006 7.339710 9.755830 -72.616600 -11.754300 -0.000006 -0.000006 -0.904535 -1.138710 -15.865900
0.000000 0.000000 0.000000 0.000000 0.000000 -0.000000 -3.957820 90.980400 -0.503959 91.285500 0.300441 4.785520 15.735700 0.000005 -0.000001 94.527700 84.119100 -89.839300 8.984550 -0.406207 -0.000000 3.945060 0.771512 9.339670 16.377300 -0.000001 -0.000001 6.778780 -4.242680 -5.439440 6.456720 -0.000001 -0.000000 -0.241021 -9.304920 2.949190 12.994200 -0.242716 4.980390 -83.132300 -11.145400 -58.073600 5.348090 -0.000007 -0.000001 -76.136300 -66.731400 -127.241000 24.328600 0.000019 0.000005 -0.399120 -0.310375 -52.158600 22.291600 -0.000001 0.000005 27.388800 5.231360 1.920310 12.994500 -0.242716 -4.980390 87.753300 7.220180 -72.663800 -5.348130 -0.000001 -0.000004 -54.293000 -1.846570 4.724410 -24.328900 0.000322 -0.000009 -5.851030 -12.682400 -25.017200 -22.291500 -0.000108 -0.000004 24.886900 5.494380 -6.308350 -2.192480 -6.469440 -0.000000 -173.684000 -14.051600 -3.459360 39.081100 -0.000007 -0.000012 -0.156095 0.304631 27.131000 40.985400 -0.000006 -0.000013 -1.483770 12.733300 -68.126800 11.754300 -0.000000 0.000003 -0.000070 -0.000753 -16.606700 -2.192510 6.469440 -0.000001 176.481000 21.955200 176.283000 -39.081100 -0.002282 -0.040193 -0.084351 0.151337 30.078900 -40.985400 0.000008 0.000006 7.063870 9.834220 -72.491800 -11.754300 -0.000006 -0.000006 -0.911507 -1.147990 -15.860400
0.000000 0.000000 0.000000 0.000000 0.000000 -0.000000 -3.776900 90.973800 -0.648091 92.158000 -0.690058 4.553530 15.735700 0.000005 -0.000001 97.218000 84.190000 -92.693600 8.984550 -0.406207 -0.000000 3.727550 1.299210 8.996730 16.377300 -0.000001 -0.000001 6.321890 -4.406840 -4.798420 6.456720 -0.000001 -0.000000 -0.121104 -8.355020 2.290150 12.994200 -0.242716 4.980390 -84.004400 -10.338400 -59.662500 5.348090 -0.000007 -0.000001 -65.579800 -66.669000 -111.434000 24.328600 0.000019 0.000005 -3.210070 -2.887630 -48.073000 22.291600 -0.000001 0.000005 25.209300 5.174440 3.353680 12.994500 -0.242716 -4.980390 87.670500 7.354310 -72.370100 -5.348130 -0.000001 -0.000004 -54.445900 -0.820984 4.205960 -24.328900 0.000322 -0.000009 -7.068740 -14.566400 -26.242100 -22.291500 -0.000108 -0.000004 25.041700 5.512620 -7.050600 -2.192480 -6.469440 -0.000000 -174.649000 -15.171500 -3.405340 39.081100 -0.000007 -0.000012 -0.129975 0.258522 26.691600 40.985400 -0.000006 -0.000013 -1.371220 12.824500 -67.906000 11.754300 -0.000000 0.000003 -0.000066 -0.000717 -16.605300 -2.192510 6.469440 -0.000001 175.822000 20.463000 175.333000 -39.081100 -0.002282 -0.040193 -0.099913 0.172971 30.825000 -40.985400 0.000008 0.000006 6.778910 9.365740 -72.545100 -11.754300 -0.000006 -0.000006 -0.929295 -1.171730 -15.846400
0.000000 0.000000 0.000000 0.000000 0.000000 -0.000000 -3.755810 90.971700 -0.772137 93.023800 -1.517870 4.399740 15.735700 0.000005 -0.000001 97.061600 84.195200 -92.502600 8.984550 -0.406207 -0.000000 3.722360 1.265100 9.067010 16.377300 -0.000001 -0.000001 5.920710 -4.652410 -3.302750 6.456720 -0.000001 -0.000000 -0.271303 -7.272650 1.888450 12.994200 -0.242716 4.980390 -85.232500 -8.890500 -61.646800 5.348090 -0.000007 -0.000001 -38.454900 -65.321000 -76.300800 24.328600 0.000019 0.000005 -4.677490 -5.266510 -41.713900 22.291600 -0.000001 0.000005 20.825400 5.113050 4.814840 12.994500 -0.242716 -4.980390 87.604200 7.400980 -72.006200 -5.348130 -0.000001 -0.000004 -54.214600 0.069492 2.623310 -24.328900 0.000322 -0.000009 -6.676880 -13.816600 -26.110000 -22.291500 -0.000108 -0.000004 23.180600 5.502660 -6.639820 -2.192480 -6.469440 -0.000000 -175.378000 -16.889800 -3.224860 39.081100 -0.000007 -0.000012 -0.082165 0.166975 26.201000 40.985400 -0.000006 -0.000013 -0.876218 13.730600 -67.721800 11.754300 -0.000000 0.000003 -0.179650 -0.226798 -16.451800 -2.192510 6.469440 -0.000001 175.267000 18.885100 174.527000 -39.081100 -0.002282 -0.040193 -0.111640 0.187714 31.479500 -40.985400 0.000008 0.000006 6.628310 8.661530 -72.620800 -11.754300 -0.000006 -0.000006 -0.912359 -1.149120 -15.860000
0.000000 0.000000 0.000000 0.000000 0.000000 -0.000000 -3.863460 90.970600 -0.837484 93.446600 -2.006290 4.534630 15.735700 0.000005 -0.000001 95.791600 84.064100 -90.881600 8.984550 -0.406207 -0.000000 4.020300 1.036510 9.772650 16.377300 -0.000001 -0.000001 5.735870 -5.004010 -1.511150 6.456720 -0.000001 -0.000000 -0.492493 -6.520670 1.410390 12.994200 -0.242716 4.980390 -86.371800 -7.639040 -64.499100 5.348090 -0.000007 -0.000001 -21.398200 -56.397800 -47.572800 24.328600 0.000019 0.000005 -2.953070 -4.272380 -34.698400 22.291600 -0.000001 0.000005 16.859000 5.027810 6.722120 12.994500 -0.242716 -4.980390 87.546800 7.502140 -71.833700 -5.348130 -0.000001 -0.000004 -53.486900 0.001312 1.678150 -24.328900 0.000322 -0.000009 -6.219270 -12.428400 -26.851100 -22.291500 -0.000108 -0.000004 22.093200 5.496070 -6.376010 -2.192480 -6.469440 -0.000000 -175.510000 -18.226800 -2.861260 39.081100 -0.000007 -0.000012 -0.056955 0.117155 25.926600 40.985400 -0.000006 -0.000013 -0.542398 14.586000 -67.656500 11.754300 -0.000000 0.000003 -0.314350 -0.393777 -16.216500 -2.192510 6.469440 -0.000001 174.871000 18.681000 174.408000 -39.081100 -0.002282 -0.040193 -0.121226 0.201217 31.751500 -40.985400 0.000008 0.000006 6.662880 8.962660 -72.703700 -11.754300 -0.000006 -0.000006 -0.949432 -1.198660 -15.830400
0.000000 0.000000 0.000000 0.000000 0.000000 -0.000000 -3.968130 90.962000 -0.930584 93.585800 -2.316330 4.472610 15.735700 0.000005 -0.000001 95.419800 83.973100 -90.054400 8.984550 -0.406207 -0.000000 4.211480 0.971297 10.683000 16.377300 -0.000001 -0.000001 5.668570 -5.454810 0.446879 6.456720 -0.000001 -0.000000 -0.691844 -6.307850 0.841998 12.994200 -0.242716 4.980390 -87.581400 -5.960640 -67.867300 5.348090 -0.000007 -0.000001 -25.179300 -49.459300 -36.156500 24.328600 0.000019 0.000005 -1.204150 -2.328020 -27.365000 22.291600 -0.000001 0.000005 19.633900 4.975800 7.827960 12.994500 -0.242716 -4.980390 87.432600 7.698860 -71.494400 -5.348130 -0.000001 -0.000004 -52.469700 0.298991 1.063640 -24.328900 0.000322 -0.000009 -6.976050 -13.522600 -27.619000 -22.291500 -0.000108 -0.000004 22.985000 5.506970 -6.816760 -2.192480 -6.469440 -0.000000 -175.473000 -19.035600 -2.849600 39.081100 -0.000007 -0.000012 -0.078015 0.161484 25.785700 40.985400 -0.000006 -0.000013 -0.824633 14.985400 -67.393600 11.754300 -0.000000 0.000003 -0.160210 -0.202199 -16.467300 -2.192510 6.469440 -0.000001 174.729000 18.933500 174.184000 -39.081100 -0.002282 -0.040193 -0.139343 0.229343 31.879800 -40.985400 0.000008 0.000006 6.552120 9.605000 -72.690700 -11.754300 -0.000006 -0.000006 -0.960560 -1.213570 -15.821500
0.000000 0.000000 0.000000 0.000000 0.000000 -0.000000 -4.041720 90.927800 -1.022980 93.421500 -2.984790 4.137490 15.735700 0.000005 -0.000001 94.257900 83.994500 -88.492200 8.984550 -0.406207 -0.000000 4.202430 0.712310 11.492300 16.377300 -0.000001 -0.000001 5.701940 -5.772680 2.204770 6.456720 -0.000001 -0.000000 -0.669039 -6.136710 0.656896 12.994200 -0.242716 4.980390 -88.630900 -3.492750 -68.579900 5.348090 -0.000007 -0.000001 -38.698700 -49.406500 -33.544100 24.328600 0.000019 0.000005 -2.863010 -6.678310 -23.269100 22.291600 -0.000001 0.000005 19.369700 4.809700 11.136600 12.994500 -0.242716 -4.980390 87.413600 7.636300 -71.225400 -5.348130 -0.000001 -0.000004 -51.983500 0.413226 0.262015 -24.328900 0.000322 -0.000009 -6.618380 -12.963400 -27.345500 -22.291500 -0.000108 -0.000004 23.714400 5.502890 -6.650380 -2.192480 -6.469440 -0.000000 -175.266000 -19.839200 -3.290360 39.081100 -0.000007 -0.000012 -0.117651 0.240775 26.041800 40.985400 -0.000006 -0.000013 -1.112110 15.056800 -67.392400 11.754300 -0.000000 0.000003 -0.000048 -0.000549 -16.598900 -2.192510 6.469440 -0.000001 175.135000 18.257400 173.588000 -39.081100 -0.002282 -0.040193 -0.156991 0.256531 31.998500 -40.985400 0.000008 0.000006 6.310210 9.645410 -72.578600 -11.754300 -0.000006 -0.000006 -0.902149 -1.138230 -15.868000
